<svg xmlns="http://www.w3.org/2000/svg" width="24" height="24" viewBox="0 0 24 24">
    <path  d="M18.4935 5.46967C18.7864 5.76256 18.7864 6.23744 18.4935 6.53033L13.0422 11.9816L18.5303 17.4697C18.8232 17.7626 18.8232 18.2374 18.5303 18.5303C18.2374 18.8232 17.7626 18.8232 17.4697 18.5303L11.9816 13.0422L6.53033 18.4935C6.23744 18.7864 5.76256 18.7864 5.46967 18.4935C5.17678 18.2006 5.17678 17.7257 5.46967 17.4328L10.9209 11.9816L5.50651 6.56717C5.21361 6.27427 5.21361 5.7994 5.50651 5.50651C5.7994 5.21361 6.27427 5.21361 6.56717 5.50651L11.9816 10.9209L17.4328 5.46967C17.7257 5.17678 18.2006 5.17678 18.4935 5.46967Z" />
</svg>
