<svg width="18" height="17" viewBox="0 0 18 17" xmlns="http://www.w3.org/2000/svg">
    <path d="M15.12 0.666992C15.2909 0.666992 15.4545 0.736992 15.5724 0.860677L17.5768 2.96354C17.815 3.21341 17.8055 3.60918 17.5557 3.84733C17.3058 4.08546 16.91 4.07598 16.6719 3.82617L15.745 2.85368V6.29199C15.745 7.31438 15.254 8.22186 14.495 8.79199C15.254 9.36212 15.745 10.2696 15.745 11.292V14.7303L16.6719 13.7578C16.91 13.508 17.3058 13.4985 17.5557 13.7367C17.8055 13.9748 17.815 14.3706 17.5768 14.6204L15.5724 16.7233C15.4545 16.847 15.2909 16.917 15.12 16.917C14.9491 16.9169 14.7854 16.847 14.6675 16.7233L12.6631 14.6204C12.4251 14.3706 12.4353 13.9747 12.6851 13.7367C12.9349 13.4988 13.3299 13.5082 13.568 13.7578L14.495 14.7303V11.292C14.495 10.2565 13.6555 9.41699 12.62 9.41699H1.29102C0.945838 9.41699 0.666016 9.13717 0.666016 8.79199C0.666016 8.46852 0.91175 8.20243 1.22673 8.17025L1.29102 8.16699H12.62C13.6555 8.16699 14.495 7.32753 14.495 6.29199V2.85368L13.568 3.82617C13.3299 4.07573 12.9349 4.08517 12.6851 3.84733C12.4353 3.60923 12.4251 3.21342 12.6631 2.96354L14.6675 0.860677C14.7854 0.736962 14.9491 0.667039 15.12 0.666992Z"/>
</svg>
